<?xml version="1.0" standalone="no"?>
<!DOCTYPE svg PUBLIC "-//W3C//DTD SVG 20010904//EN"
 "http://www.w3.org/TR/2001/REC-SVG-20010904/DTD/svg10.dtd">
<svg version="1.0" xmlns="http://www.w3.org/2000/svg"
 width="225.000000pt" height="225.000000pt" viewBox="0 0 225.000000 225.000000"
 preserveAspectRatio="xMidYMid meet">

<g transform="translate(0.000000,225.000000) scale(0.100000,-0.100000)"
fill="#000000" stroke="none">
<path d="M845 1839 c-16 -6 -14 -8 13 -8 33 -1 41 4 20 12 -7 2 -22 1 -33 -4z"/>
<path d="M1010 1840 l-45 -7 42 -1 c23 -1 45 3 48 8 3 6 5 9 3 8 -2 0 -23 -4
-48 -8z"/>
<path d="M1230 1840 c-19 -6 -12 -8 30 -9 39 0 51 2 40 9 -17 11 -35 11 -70 0z"/>
<path d="M1515 1840 c-15 -6 -7 -9 30 -9 36 -1 46 2 35 9 -18 12 -38 12 -65 0z"/>
<path d="M688 1833 c12 -2 32 -2 45 0 12 2 2 4 -23 4 -25 0 -35 -2 -22 -4z"/>
<path d="M815 1800 c-4 -6 10 -10 35 -10 23 0 39 4 36 8 -7 12 -64 14 -71 2z"/>
<path d="M953 1798 c-2 -5 14 -8 36 -8 22 0 42 4 45 8 3 5 -13 8 -35 8 -23 -1
-43 -4 -46 -8z"/>
<path d="M1180 1800 c-33 -9 96 -18 136 -9 28 6 28 7 4 8 -14 1 -45 3 -70 5
-25 2 -56 0 -70 -4z"/>
<path d="M1452 1798 c-9 -3 25 -7 76 -7 50 -1 92 2 92 7 0 9 -144 10 -168 0z"/>
<path d="M688 1793 c12 -2 32 -2 45 0 12 2 2 4 -23 4 -25 0 -35 -2 -22 -4z"/>
<path d="M670 1751 c0 -11 56 -9 66 2 4 4 -9 7 -29 7 -20 0 -37 -4 -37 -9z"/>
<path d="M787 1753 c-3 -5 19 -8 49 -8 30 0 54 3 54 8 0 4 -22 7 -49 7 -28 0
-52 -3 -54 -7z"/>
<path d="M936 1752 c-5 -8 62 -7 71 2 4 3 -10 6 -30 6 -20 0 -38 -3 -41 -8z"/>
<path d="M1130 1753 c0 -10 68 -9 77 1 3 3 -12 6 -35 6 -23 0 -42 -3 -42 -7z"/>
<path d="M1264 1753 c7 -7 77 -5 85 3 2 2 -17 4 -44 4 -27 0 -45 -3 -41 -7z"/>
<path d="M1410 1752 c0 -8 68 -7 76 0 2 3 -14 5 -36 6 -22 1 -40 -2 -40 -6z"/>
<path d="M1568 1753 c12 -2 32 -2 45 0 12 2 2 4 -23 4 -25 0 -35 -2 -22 -4z"/>
<path d="M660 1710 c0 -5 18 -10 40 -10 22 0 40 5 40 10 0 6 -18 10 -40 10
-22 0 -40 -4 -40 -10z"/>
<path d="M765 1710 c-4 -6 18 -10 59 -10 37 0 66 4 66 10 0 6 -26 10 -59 10
-33 0 -63 -4 -66 -10z"/>
<path d="M915 1710 c-4 -6 8 -10 29 -10 19 0 38 5 41 10 4 6 -8 10 -29 10 -19
0 -38 -4 -41 -10z"/>
<path d="M1114 1709 c-3 -5 11 -9 30 -9 19 0 37 4 40 9 3 5 -10 9 -29 9 -19 0
-38 -4 -41 -9z"/>
<path d="M1260 1712 c0 -12 68 -14 75 -2 4 6 -9 10 -34 10 -23 0 -41 -4 -41
-8z"/>
<path d="M1395 1710 c-4 -6 8 -10 29 -10 19 0 38 5 41 10 4 6 -8 10 -29 10
-19 0 -38 -4 -41 -10z"/>
<path d="M1550 1710 c0 -5 16 -10 35 -10 19 0 35 5 35 10 0 6 -16 10 -35 10
-19 0 -35 -4 -35 -10z"/>
<path d="M738 1663 c46 -2 118 -2 160 0 42 1 5 3 -83 3 -88 0 -123 -2 -77 -3z"/>
<path d="M1118 1663 c12 -2 30 -2 40 0 9 3 -1 5 -23 4 -22 0 -30 -2 -17 -4z"/>
<path d="M1268 1663 c12 -2 30 -2 40 0 9 3 -1 5 -23 4 -22 0 -30 -2 -17 -4z"/>
<path d="M1380 1662 c0 -4 16 -6 35 -4 19 2 35 6 35 8 0 2 -16 4 -35 4 -19 0
-35 -4 -35 -8z"/>
<path d="M1558 1663 c12 -2 30 -2 40 0 9 3 -1 5 -23 4 -22 0 -30 -2 -17 -4z"/>
<path d="M655 1620 c-4 -6 18 -10 59 -10 37 0 66 4 66 10 0 6 -26 10 -59 10
-33 0 -63 -4 -66 -10z"/>
<path d="M810 1620 c0 -6 28 -10 65 -10 37 0 65 4 65 10 0 6 -28 10 -65 10
-37 0 -65 -4 -65 -10z"/>
<path d="M1085 1620 c-4 -6 10 -10 34 -10 23 0 41 5 41 10 0 6 -15 10 -34 10
-19 0 -38 -4 -41 -10z"/>
<path d="M1235 1620 c-4 -6 10 -10 34 -10 23 0 41 5 41 10 0 6 -15 10 -34 10
-19 0 -38 -4 -41 -10z"/>
<path d="M1370 1620 c0 -5 16 -10 35 -10 19 0 35 5 35 10 0 6 -16 10 -35 10
-19 0 -35 -4 -35 -10z"/>
<path d="M1520 1620 c0 -6 16 -10 35 -10 19 0 35 4 35 8 0 5 -16 9 -35 10 -19
1 -35 -3 -35 -8z"/>
<path d="M660 1578 c0 -12 98 -10 105 2 4 7 -14 10 -49 8 -31 -1 -56 -6 -56
-10z"/>
<path d="M810 1579 c0 -5 22 -9 49 -9 28 0 52 4 56 9 3 6 -18 10 -50 10 -30 0
-55 -5 -55 -10z"/>
<path d="M1092 1583 c-6 -3 -10 -8 -8 -12 3 -4 -19 -15 -48 -24 -103 -33 -167
-97 -202 -203 -22 -67 -25 -204 -6 -269 6 -22 16 -94 23 -160 6 -66 21 -157
33 -202 13 -46 19 -83 14 -83 -4 0 -8 -5 -8 -11 0 -5 4 -8 9 -4 5 3 12 1 15
-4 4 -5 -2 -12 -11 -14 -14 -4 -13 -5 4 -6 12 0 27 -10 33 -20 10 -20 20 -24
78 -36 20 -4 32 -3 32 4 0 6 -12 11 -26 11 -14 0 -23 4 -19 10 4 6 -6 10 -23
10 -24 0 -32 6 -42 31 -11 26 -11 32 1 40 11 7 11 9 -3 9 -34 0 -18 19 20 23
l37 4 -41 1 c-24 1 -41 7 -42 15 -1 6 -6 39 -12 72 -18 99 -19 105 -9 105 5 0
9 -5 9 -10 0 -6 12 -29 26 -52 21 -32 23 -42 12 -49 -10 -7 -8 -9 7 -9 11 0
34 -15 52 -34 26 -29 28 -35 15 -38 -10 -2 19 -3 63 -3 65 0 87 4 118 23 21
12 42 22 48 22 5 0 9 5 9 11 0 6 21 30 46 52 61 55 89 101 104 170 10 53 14
57 39 57 15 0 36 7 47 15 10 8 22 15 27 15 4 0 7 -35 7 -77 0 -60 -5 -85 -20
-111 -23 -38 -80 -91 -97 -92 -7 0 -13 -7 -13 -15 0 -9 -10 -15 -27 -16 -26
-1 -26 -2 5 -9 19 -4 46 -4 60 0 20 6 22 9 8 9 -15 1 -7 13 36 54 67 62 73 83
65 230 -14 251 -34 350 -95 470 -2 4 9 8 25 8 22 2 20 3 -11 8 -68 10 -55 30
21 34 62 3 59 3 -24 5 -50 1 -94 6 -97 11 -3 4 -19 11 -36 15 -18 3 -29 10
-25 16 8 13 -46 13 -81 0 -15 -6 -35 -8 -43 -4 -20 9 -62 12 -79 7z m98 -373
c0 -5 -4 -10 -10 -10 -5 0 -10 5 -10 10 0 6 5 10 10 10 6 0 10 -4 10 -10z
m-20 -50 c0 -5 -2 -10 -4 -10 -3 0 -8 5 -11 10 -3 6 -1 10 4 10 6 0 11 -4 11
-10z m-70 -15 c0 -8 -7 -15 -15 -15 -16 0 -20 12 -8 23 11 12 23 8 23 -8z
m103 -22 c-7 -3 -10 -10 -7 -17 3 -9 -9 -17 -35 -24 -33 -8 -41 -7 -41 4 0 7
11 16 25 20 13 3 29 12 36 20 6 8 16 11 22 7 8 -5 8 -8 0 -10z m-183 -8 c0 -8
-4 -15 -10 -15 -5 0 -10 7 -10 15 0 8 5 15 10 15 6 0 10 -7 10 -15z m-75 -15
c3 -5 1 -10 -4 -10 -6 0 -11 5 -11 10 0 6 2 10 4 10 3 0 8 -4 11 -10z m-61
-16 c4 -10 1 -14 -6 -12 -15 5 -23 28 -10 28 5 0 13 -7 16 -16z m216 6 c10 -6
12 -12 4 -20 -7 -7 -20 -7 -42 3 -18 7 -29 16 -25 20 9 10 45 8 63 -3z m-170
-39 c0 -6 -5 -13 -11 -16 -6 -4 -9 -30 -8 -59 2 -28 0 -50 -4 -48 -4 1 -13 2
-20 2 -8 0 -19 17 -25 39 -15 47 -15 64 -2 56 6 -3 10 -2 10 2 0 5 10 13 23
19 29 15 37 16 37 5z m236 -33 c-9 -58 -23 -69 -47 -39 -27 33 -24 57 9 69 43
16 45 15 38 -30z m-141 -178 c-27 -12 -35 -12 -35 0 0 6 12 10 28 9 24 0 25
-1 7 -9z"/>
<path d="M1360 1580 c0 -5 21 -10 46 -10 27 0 43 4 39 10 -3 6 -24 10 -46 10
-21 0 -39 -4 -39 -10z"/>
<path d="M1504 1579 c-3 -5 11 -9 30 -9 19 0 37 4 40 9 3 5 -10 9 -29 9 -19 0
-38 -4 -41 -9z"/>
<path d="M668 1533 c12 -2 30 -2 40 0 9 3 -1 5 -23 4 -22 0 -30 -2 -17 -4z"/>
<path d="M833 1533 c15 -2 37 -2 50 0 12 2 0 4 -28 4 -27 0 -38 -2 -22 -4z"/>
<path d="M673 1493 c9 -2 25 -2 35 0 9 3 1 5 -18 5 -19 0 -27 -2 -17 -5z"/>
<path d="M828 1493 c12 -2 30 -2 40 0 9 3 -1 5 -23 4 -22 0 -30 -2 -17 -4z"/>
<path d="M268 753 c7 -3 16 -2 19 1 4 3 -2 6 -13 5 -11 0 -14 -3 -6 -6z"/>
<path d="M1908 753 c6 -2 18 -2 25 0 6 3 1 5 -13 5 -14 0 -19 -2 -12 -5z"/>
<path d="M2008 753 c6 -2 18 -2 25 0 6 3 1 5 -13 5 -14 0 -19 -2 -12 -5z"/>
<path d="M258 723 c6 -2 18 -2 25 0 6 3 1 5 -13 5 -14 0 -19 -2 -12 -5z"/>
<path d="M343 723 c9 -2 23 -2 30 0 6 3 -1 5 -18 5 -16 0 -22 -2 -12 -5z"/>
<path d="M433 723 c9 -2 23 -2 30 0 6 3 -1 5 -18 5 -16 0 -22 -2 -12 -5z"/>
<path d="M548 723 c17 -2 47 -2 65 0 17 2 3 4 -33 4 -36 0 -50 -2 -32 -4z"/>
<path d="M738 723 c17 -2 47 -2 65 0 17 2 3 4 -33 4 -36 0 -50 -2 -32 -4z"/>
<path d="M928 723 c7 -3 16 -2 19 1 4 3 -2 6 -13 5 -11 0 -14 -3 -6 -6z"/>
<path d="M1548 723 c17 -2 47 -2 65 0 17 2 3 4 -33 4 -36 0 -50 -2 -32 -4z"/>
<path d="M1773 723 c9 -2 23 -2 30 0 6 3 -1 5 -18 5 -16 0 -22 -2 -12 -5z"/>
<path d="M1913 723 c9 -2 23 -2 30 0 6 3 -1 5 -18 5 -16 0 -22 -2 -12 -5z"/>
<path d="M1988 723 c6 -2 18 -2 25 0 6 3 1 5 -13 5 -14 0 -19 -2 -12 -5z"/>
<path d="M253 673 c9 -2 23 -2 30 0 6 3 -1 5 -18 5 -16 0 -22 -2 -12 -5z"/>
<path d="M323 673 c9 -2 25 -2 35 0 9 3 1 5 -18 5 -19 0 -27 -2 -17 -5z"/>
<path d="M408 673 c6 -2 18 -2 25 0 6 3 1 5 -13 5 -14 0 -19 -2 -12 -5z"/>
<path d="M508 673 c6 -2 18 -2 25 0 6 3 1 5 -13 5 -14 0 -19 -2 -12 -5z"/>
<path d="M708 673 c6 -2 18 -2 25 0 6 3 1 5 -13 5 -14 0 -19 -2 -12 -5z"/>
<path d="M798 673 c6 -2 18 -2 25 0 6 3 1 5 -13 5 -14 0 -19 -2 -12 -5z"/>
<path d="M1323 673 c9 -2 25 -2 35 0 9 3 1 5 -18 5 -19 0 -27 -2 -17 -5z"/>
<path d="M1518 673 c6 -2 18 -2 25 0 6 3 1 5 -13 5 -14 0 -19 -2 -12 -5z"/>
<path d="M1598 673 c6 -2 18 -2 25 0 6 3 1 5 -13 5 -14 0 -19 -2 -12 -5z"/>
<path d="M1758 673 c12 -2 30 -2 40 0 9 3 -1 5 -23 4 -22 0 -30 -2 -17 -4z"/>
<path d="M1928 673 c12 -2 32 -2 45 0 12 2 2 4 -23 4 -25 0 -35 -2 -22 -4z"/>
<path d="M263 643 c9 -2 23 -2 30 0 6 3 -1 5 -18 5 -16 0 -22 -2 -12 -5z"/>
<path d="M348 643 c6 -2 18 -2 25 0 6 3 1 5 -13 5 -14 0 -19 -2 -12 -5z"/>
<path d="M993 643 c9 -2 23 -2 30 0 6 3 -1 5 -18 5 -16 0 -22 -2 -12 -5z"/>
<path d="M1133 643 c15 -2 37 -2 50 0 12 2 0 4 -28 4 -27 0 -38 -2 -22 -4z"/>
<path d="M1398 643 c7 -3 16 -2 19 1 4 3 -2 6 -13 5 -11 0 -14 -3 -6 -6z"/>
<path d="M1728 643 c7 -3 16 -2 19 1 4 3 -2 6 -13 5 -11 0 -14 -3 -6 -6z"/>
<path d="M258 623 c7 -3 16 -2 19 1 4 3 -2 6 -13 5 -11 0 -14 -3 -6 -6z"/>
<path d="M528 623 c6 -2 18 -2 25 0 6 3 1 5 -13 5 -14 0 -19 -2 -12 -5z"/>
<path d="M1008 623 c7 -3 16 -2 19 1 4 3 -2 6 -13 5 -11 0 -14 -3 -6 -6z"/>
<path d="M1375 620 c3 -5 8 -10 11 -10 2 0 4 5 4 10 0 6 -5 10 -11 10 -5 0 -7
-4 -4 -10z"/>
<path d="M1510 620 c-13 -8 -12 -10 3 -10 9 0 17 5 17 10 0 12 -1 12 -20 0z"/>
<path d="M263 593 c9 -2 23 -2 30 0 6 3 -1 5 -18 5 -16 0 -22 -2 -12 -5z"/>
<path d="M353 593 c9 -2 23 -2 30 0 6 3 -1 5 -18 5 -16 0 -22 -2 -12 -5z"/>
<path d="M688 593 c6 -2 18 -2 25 0 6 3 1 5 -13 5 -14 0 -19 -2 -12 -5z"/>
<path d="M778 593 c7 -3 16 -2 19 1 4 3 -2 6 -13 5 -11 0 -14 -3 -6 -6z"/>
<path d="M973 593 c9 -2 25 -2 35 0 9 3 1 5 -18 5 -19 0 -27 -2 -17 -5z"/>
<path d="M1108 593 c7 -3 16 -2 19 1 4 3 -2 6 -13 5 -11 0 -14 -3 -6 -6z"/>
<path d="M1388 593 c7 -3 16 -2 19 1 4 3 -2 6 -13 5 -11 0 -14 -3 -6 -6z"/>
<path d="M1578 593 c7 -3 16 -2 19 1 4 3 -2 6 -13 5 -11 0 -14 -3 -6 -6z"/>
<path d="M1708 593 c6 -2 18 -2 25 0 6 3 1 5 -13 5 -14 0 -19 -2 -12 -5z"/>
<path d="M1773 593 c9 -2 23 -2 30 0 6 3 -1 5 -18 5 -16 0 -22 -2 -12 -5z"/>
<path d="M1918 593 c7 -3 16 -2 19 1 4 3 -2 6 -13 5 -11 0 -14 -3 -6 -6z"/>
<path d="M253 563 c9 -2 23 -2 30 0 6 3 -1 5 -18 5 -16 0 -22 -2 -12 -5z"/>
<path d="M498 563 c12 -2 32 -2 45 0 12 2 2 4 -23 4 -25 0 -35 -2 -22 -4z"/>
<path d="M698 563 c18 -2 45 -2 60 0 15 2 0 4 -33 4 -33 0 -45 -2 -27 -4z"/>
<path d="M888 563 c7 -3 16 -2 19 1 4 3 -2 6 -13 5 -11 0 -14 -3 -6 -6z"/>
<path d="M1133 563 c15 -2 39 -2 55 0 15 2 2 4 -28 4 -30 0 -43 -2 -27 -4z"/>
<path d="M1297 563 c18 -2 50 -2 70 0 21 2 7 4 -32 4 -38 0 -55 -2 -38 -4z"/>
<path d="M1503 563 c15 -2 39 -2 55 0 15 2 2 4 -28 4 -30 0 -43 -2 -27 -4z"/>
<path d="M1788 563 c7 -3 16 -2 19 1 4 3 -2 6 -13 5 -11 0 -14 -3 -6 -6z"/>
<path d="M1908 563 c7 -3 16 -2 19 1 4 3 -2 6 -13 5 -11 0 -14 -3 -6 -6z"/>
</g>
</svg>
